<svg aria-hidden="true" style="position: absolute; width: 0; height: 0; overflow: hidden;" version="1.1" xmlns="http://www.w3.org/2000/svg" xmlns:xlink="http://www.w3.org/1999/xlink">
<defs>
<symbol id="icon-github" viewBox="0 0 32 32">
<path  d="M16 0c-8.789 0-16 7.211-16 16 0 7.499 5.262 14.312 12.25 16v-5.293c-0.276 0.070-0.593 0.109-0.919 0.109-0.398 0-0.781-0.059-1.143-0.169l0.028 0.007c-0.946-0.278-1.714-0.909-2.285-1.869-0.363-0.613-1.008-1.28-1.68-1.23l-0.165-1.867c1.454-0.125 2.71 0.886 3.456 2.139 0.333 0.558 0.715 0.885 1.205 1.029 0.472 0.141 0.981 0.074 1.573-0.136 0.149-1.186 0.693-1.629 1.104-2.256-4.168-0.621-5.829-2.832-6.488-4.576-0.874-2.318-0.405-5.213 1.139-7.043 0.030-0.035 0.085-0.128 0.064-0.192-0.709-2.141 0.154-3.91 0.186-4.098 0.818 0.24 0.95-0.243 3.552 1.336l0.448 0.27c0.189 0.112 0.128 0.048 0.317 0.032 1.003-0.282 2.157-0.452 3.349-0.469l0.010-0c1.136 0.014 2.272 0.176 3.403 0.483l0.146 0.016c-0.013-0.003 0.040-0.010 0.128-0.062 3.248-1.968 3.131-1.325 4.003-1.608 0.032 0.189 0.882 1.987 0.182 4.099-0.096 0.291 2.816 2.957 1.202 7.235-0.659 1.744-2.32 3.957-6.486 4.578 0.534 0.816 1.176 1.248 1.173 2.928v6.606c6.986-1.688 12.25-8.501 12.25-16 0-8.789-7.211-16-16-16z"></path>
</symbol>
<symbol id="icon-half-arrow" viewBox="0 0 26 32">
<path fill="none" stroke="#d41443" style="stroke: var(--color1, #d41443);" stroke-linejoin="round" stroke-linecap="round" stroke-miterlimit="4" stroke-width="6.4" d="M3.2 3.2l12.8 12.8-12.8 12.8"></path>
</symbol>
<symbol id="icon-house" viewBox="0 0 35 32">
<path d="M34.253 15.613c0.257-0.279 0.414-0.654 0.414-1.064 0-0.475-0.21-0.901-0.543-1.19l-0.002-0.002-14.773-12.925c-0.318-0.269-0.732-0.432-1.184-0.432-0.467 0-0.893 0.174-1.217 0.46l0.002-0.002-14.821 13.589c-0.316 0.288-0.513 0.701-0.513 1.16 0 0.424 0.168 0.809 0.442 1.091l-0-0 0.373 0.387c0.613 0.64 1.611 0.72 2.224 0.171l1.107-0.992v14.523c0 0.893 0.72 1.613 1.613 1.613h5.773c0.891 0 1.613-0.72 1.613-1.613v-10.16h7.373v10.16c-0.013 0.891 0.624 1.613 1.515 1.613h6.123c0.891 0 1.611-0.72 1.611-1.613v-14.32l0.685 0.603c0.376 0.331 1.168 0.064 1.765-0.595l0.421-0.461z"></path>
</symbol>
<symbol id="icon-facebook" viewBox="0 0 32 32">
<path d="M21.328 5.312h2.923v-5.088c-1.232-0.143-2.66-0.224-4.108-0.224-0.052 0-0.104 0-0.156 0l0.008-0c-4.213 0-7.099 2.65-7.099 7.52v4.48h-4.646v5.688h4.646v14.312h5.699v-14.31h4.459l0.707-5.688h-5.168v-3.922c0-1.643 0.443-2.768 2.734-2.768z"></path>
</symbol>
<symbol id="icon-telegram" viewBox="0 0 32 32">
<path d="M32 0l-32 18 10.227 3.787 15.773-14.787-11.997 16.187 0.009 0.003-0.012-0.003v8.813l5.735-6.691 7.267 2.691 4.999-28z"></path>
</symbol>
<symbol id="icon-menu" viewBox="0 0 32 32">
<path d="M6.4 11.734v-2.134h19.2v2.134h-19.2zM6.4 17.066h19.2v-2.133h-19.2v2.133zM6.4 22.4h19.2v-2.134h-19.2v2.134z"></path>
</symbol>
<symbol id="icon-close" viewBox="0 0 32 32">
<path d="M26.667 7.303l-1.97-1.97-7.808 7.808-7.808-7.808-1.97 1.97 7.808 7.808-7.808 7.808 1.97 1.97 7.808-7.808 7.808 7.808 1.97-1.97-7.808-7.808 7.808-7.808z"></path>
</symbol>
<symbol id="icon-arrow-right" viewBox="0 0 32 32">
<path d="M19.414 27.414l10-10c0.781-0.781 0.781-2.047 0-2.828l-10-10c-0.781-0.781-2.047-0.781-2.828 0s-0.781 2.047 0 2.828l6.586 6.586h-19.172c-1.105 0-2 0.895-2 2s0.895 2 2 2h19.172l-6.586 6.586c-0.39 0.39-0.586 0.902-0.586 1.414s0.195 1.024 0.586 1.414c0.781 0.781 2.047 0.781 2.828 0z"></path>
</symbol>
</defs>
</svg>
